<?xml version="1.0" encoding="UTF-8" standalone="no"?>
<svg
   xmlns:dc="http://purl.org/dc/elements/1.1/"
   xmlns:cc="http://creativecommons.org/ns#"
   xmlns:rdf="http://www.w3.org/1999/02/22-rdf-syntax-ns#"
   xmlns:svg="http://www.w3.org/2000/svg"
   xmlns="http://www.w3.org/2000/svg"
   xmlns:sodipodi="http://sodipodi.sourceforge.net/DTD/sodipodi-0.dtd"
   xmlns:inkscape="http://www.inkscape.org/namespaces/inkscape"
   sodipodi:docname="perseo_logo.svg"
   inkscape:version="1.0 (4035a4fb49, 2020-05-01)"
   id="svg1118"
   version="1.1"
   viewBox="0 0 210.87158 37.345039"
   height="37.345039mm"
   width="210.87158mm">
  <defs
     id="defs1112" />
  <sodipodi:namedview
     inkscape:window-maximized="1"
     inkscape:window-y="-8"
     inkscape:window-x="2552"
     inkscape:window-height="1377"
     inkscape:window-width="3440"
     fit-margin-bottom="0"
     fit-margin-right="0"
     fit-margin-left="0"
     fit-margin-top="0"
     showgrid="false"
     inkscape:document-rotation="0"
     inkscape:current-layer="layer1"
     inkscape:document-units="mm"
     inkscape:cy="171.278"
     inkscape:cx="377.79167"
     inkscape:zoom="1.4"
     inkscape:pageshadow="2"
     inkscape:pageopacity="0.0"
     borderopacity="1.0"
     bordercolor="#666666"
     pagecolor="#ffffff"
     id="base" />
  <metadata
     id="metadata1115">
    <rdf:RDF>
      <cc:Work
         rdf:about="">
        <dc:format>image/svg+xml</dc:format>
        <dc:type
           rdf:resource="http://purl.org/dc/dcmitype/StillImage" />
        <dc:title></dc:title>
      </cc:Work>
    </rdf:RDF>
  </metadata>
  <g
     transform="translate(205.97746,187.2499)"
     id="layer1"
     inkscape:groupmode="layer"
     inkscape:label="Layer 1">
    <g
       aria-label="PERSEO"
       transform="matrix(1.2873253,0,0,0.77680444,-519.82707,-367.00755)"
       id="text835"
       style="font-style:normal;font-variant:normal;font-weight:normal;font-stretch:normal;font-size:59.4291px;line-height:1.25;font-family:'Agency FB';-inkscape-font-specification:'Agency FB, Normal';font-variant-ligatures:normal;font-variant-caps:normal;font-variant-numeric:normal;font-variant-east-asian:normal;opacity:0.997;fill:#ffffff;fill-opacity:1;stroke:none;stroke-width:1.48573">
      <path
         id="path989"
         style="font-style:normal;font-variant:normal;font-weight:normal;font-stretch:normal;font-size:59.4291px;font-family:'Agency FB';-inkscape-font-specification:'Agency FB, Normal';font-variant-ligatures:normal;font-variant-caps:normal;font-variant-numeric:normal;font-variant-east-asian:normal;stroke-width:5.61536;fill:#ffffff"
         d="m 1287.2773,687.21484 v 133.33008 h 19.625 v -52.90625 -10.56445 -59.38086 -10.47852 z"
         transform="scale(0.20552951,0.34060482)" />
      <path
         d="m 303.86393,279.48172 h -14.91531 v -45.41335 h 14.7412 v 3.56923 h -10.70768 v 16.94658 h 9.75008 v 3.62726 h -9.75008 v 17.70105 h 10.88179 z"
         style="font-style:normal;font-variant:normal;font-weight:normal;font-stretch:normal;font-size:59.4291px;font-family:'Agency FB';-inkscape-font-specification:'Agency FB, Normal';font-variant-ligatures:normal;font-variant-caps:normal;font-variant-numeric:normal;font-variant-east-asian:normal;stroke-width:1.48573;fill:#ffffff"
         id="path991" />
      <path
         d="m 329.51594,279.48172 h -4.23664 l -8.44427,-24.31718 0.55134,-0.81251 h 7.19649 V 237.6376 H 314.2234 v 41.84412 h -4.03352 v -45.41335 h 15.20549 q 1.42189,0 2.32145,0.89956 0.89956,0.89956 0.89956,2.32145 v 17.23676 q 0,3.27905 -4.41075,3.27905 -0.43527,0 -1.2768,-0.029 -0.84152,-0.058 -1.21876,-0.058 3.91745,10.85278 7.80587,21.76359 z"
         style="font-style:normal;font-variant:normal;font-weight:normal;font-stretch:normal;font-size:59.4291px;font-family:'Agency FB';-inkscape-font-specification:'Agency FB, Normal';font-variant-ligatures:normal;font-variant-caps:normal;font-variant-numeric:normal;font-variant-east-asian:normal;stroke-width:1.48573;fill:#ffffff"
         id="path993" />
      <path
         d="m 353.3108,276.26071 q 0,1.42189 -0.89956,2.32145 -0.87055,0.89956 -2.29244,0.89956 h -11.43313 q -1.42189,0 -2.35047,-0.89956 -0.89956,-0.89956 -0.89956,-2.32145 v -11.52019 h 4.03352 v 11.17197 h 9.80812 v -10.82376 l -12.53583,-15.14745 q -1.30581,-1.56698 -1.30581,-3.45316 v -9.19874 q 0,-1.42189 0.89956,-2.32145 0.92858,-0.89956 2.35047,-0.89956 h 11.43313 q 1.42189,0 2.29244,0.89956 0.89956,0.89956 0.89956,2.32145 v 10.56259 h -4.03352 V 237.6376 h -9.80812 v 9.57598 l 12.59386,15.14745 q 1.24778,1.50894 1.24778,3.39512 z"
         style="font-style:normal;font-variant:normal;font-weight:normal;font-stretch:normal;font-size:59.4291px;font-family:'Agency FB';-inkscape-font-specification:'Agency FB, Normal';font-variant-ligatures:normal;font-variant-caps:normal;font-variant-numeric:normal;font-variant-east-asian:normal;stroke-width:1.48573;fill:#ffffff"
         id="path995" />
      <path
         d="m 375.36457,279.48172 h -14.91531 v -45.41335 h 14.7412 v 3.56923 h -10.70769 v 16.94658 h 9.75009 v 3.62726 h -9.75009 v 17.70105 h 10.8818 z"
         style="font-style:normal;font-variant:normal;font-weight:normal;font-stretch:normal;font-size:59.4291px;font-family:'Agency FB';-inkscape-font-specification:'Agency FB, Normal';font-variant-ligatures:normal;font-variant-caps:normal;font-variant-numeric:normal;font-variant-east-asian:normal;stroke-width:1.48573;fill:#ffffff"
         id="path997" />
      <path
         id="path999"
         style="font-style:normal;font-variant:normal;font-weight:normal;font-stretch:normal;font-size:59.4291px;font-family:'Agency FB';-inkscape-font-specification:'Agency FB, Normal';font-variant-ligatures:normal;font-variant-caps:normal;font-variant-numeric:normal;font-variant-east-asian:normal;stroke-width:1.48573;fill:#ffffff"
         d="m 382.92355,254.04396 v 15.03385 7.18263 c 0,0.94793 0.29989,1.722 0.89961,2.32171 0.59971,0.5997 1.37351,0.8994 2.32143,0.8994 h 12.7099 c 0.94795,0 1.72175,-0.2997 2.32146,-0.8994 0.61906,-0.59971 0.92889,-1.37378 0.92889,-2.32171 v -8.39936 -13.81712 h -4.03352 v 13.81712 8.05144 h -11.11425 v -8.05144 -13.81712 z"
         sodipodi:nodetypes="ccsssscsccccccccc" />
    </g>
    <path
       id="path1715"
       d="M -0.65429688 -187.25 L -2.2207031 -185.05078 L -0.16796875 -183.58984 L -1.0019531 -181.85156 L -3.1523438 -181.04883 L -9.4824219 -184.79297 L -14.589844 -179.83789 L -19.388672 -184.62695 L -26.972656 -180.98047 L -27.916016 -181.55273 L -27.984375 -183.61328 L -26.283203 -185.07812 L -28.044922 -187.125 L -30.726562 -184.81641 L -30.564453 -180.00195 L -27.123047 -177.91211 L -19.941406 -181.36523 L -14.617188 -176.04883 L -9.0820312 -181.41992 L -3.4140625 -178.06641 L 0.9609375 -179.70312 L 3.25 -184.4707 L -0.65429688 -187.25 z "
       style="color:#000000;font-style:normal;font-variant:normal;font-weight:normal;font-stretch:normal;font-size:medium;line-height:normal;font-family:sans-serif;font-variant-ligatures:normal;font-variant-position:normal;font-variant-caps:normal;font-variant-numeric:normal;font-variant-alternates:normal;font-variant-east-asian:normal;font-feature-settings:normal;font-variation-settings:normal;text-indent:0;text-align:start;text-decoration:none;text-decoration-line:none;text-decoration-style:solid;text-decoration-color:#000000;letter-spacing:normal;word-spacing:normal;text-transform:none;writing-mode:lr-tb;direction:ltr;text-orientation:mixed;dominant-baseline:auto;baseline-shift:baseline;text-anchor:start;white-space:normal;shape-padding:0;shape-margin:0;inline-size:0;clip-rule:nonzero;display:inline;overflow:visible;visibility:visible;isolation:auto;mix-blend-mode:normal;color-interpolation:sRGB;color-interpolation-filters:linearRGB;solid-color:#000000;solid-opacity:1;vector-effect:none;fill:#ffffff;fill-opacity:1;fill-rule:nonzero;stroke:none;stroke-width:2.69999;stroke-linecap:butt;stroke-linejoin:miter;stroke-miterlimit:4;stroke-dasharray:none;stroke-dashoffset:0;stroke-opacity:1;color-rendering:auto;image-rendering:auto;shape-rendering:auto;text-rendering:auto;enable-background:accumulate;stop-color:#000000;stop-opacity:1;opacity:0.997" />
    <path
       id="path1719"
       d="M -8.6601562 -179.03516 L -14.599609 -173.72656 L -19.945312 -178.85352 L -26.335938 -174.98633 L -29.603516 -177.11719 L -33.271484 -174.65039 L -33.111328 -169.5332 L -29.398438 -167.1543 L -27.941406 -169.42578 L -30.457031 -171.03906 L -30.527344 -173.24219 L -29.580078 -173.87891 L -26.388672 -171.79688 L -20.318359 -175.4707 L -14.664062 -170.04688 L -8.3007812 -175.73438 L -1.703125 -172.01562 L 1.1953125 -174.08789 L 1.8613281 -173.11719 L 0.87109375 -170.56836 L -0.59375 -170.21094 L 0.046875 -167.58789 L 2.8769531 -168.2793 L 4.8945312 -173.4668 L 1.8671875 -177.88477 L -1.875 -175.21094 L -8.6601562 -179.03516 z "
       style="color:#000000;font-style:normal;font-variant:normal;font-weight:normal;font-stretch:normal;font-size:medium;line-height:normal;font-family:sans-serif;font-variant-ligatures:normal;font-variant-position:normal;font-variant-caps:normal;font-variant-numeric:normal;font-variant-alternates:normal;font-variant-east-asian:normal;font-feature-settings:normal;font-variation-settings:normal;text-indent:0;text-align:start;text-decoration:none;text-decoration-line:none;text-decoration-style:solid;text-decoration-color:#000000;letter-spacing:normal;word-spacing:normal;text-transform:none;writing-mode:lr-tb;direction:ltr;text-orientation:mixed;dominant-baseline:auto;baseline-shift:baseline;text-anchor:start;white-space:normal;shape-padding:0;shape-margin:0;inline-size:0;clip-rule:nonzero;display:inline;overflow:visible;visibility:visible;isolation:auto;mix-blend-mode:normal;color-interpolation:sRGB;color-interpolation-filters:linearRGB;solid-color:#000000;solid-opacity:1;vector-effect:none;fill:#ffffff;fill-opacity:1;fill-rule:nonzero;stroke:none;stroke-width:2.69999;stroke-linecap:butt;stroke-linejoin:miter;stroke-miterlimit:4;stroke-dasharray:none;stroke-dashoffset:0;stroke-opacity:1;color-rendering:auto;image-rendering:auto;shape-rendering:auto;text-rendering:auto;enable-background:accumulate;stop-color:#000000;stop-opacity:1;opacity:0.997" />
    <path
       id="path1723"
       d="M -19.855469 -173.10938 L -26.873047 -169.68164 L -26.339844 -162.26172 L -29.564453 -163.02148 L -29.398438 -165.88281 L -32.09375 -166.03906 L -32.390625 -160.91406 L -23.384766 -158.79102 L -24.048828 -168.05469 L -18.669922 -170.68164 L -19.855469 -173.10938 z "
       style="color:#000000;font-style:normal;font-variant:normal;font-weight:normal;font-stretch:normal;font-size:medium;line-height:normal;font-family:sans-serif;font-variant-ligatures:normal;font-variant-position:normal;font-variant-caps:normal;font-variant-numeric:normal;font-variant-alternates:normal;font-variant-east-asian:normal;font-feature-settings:normal;font-variation-settings:normal;text-indent:0;text-align:start;text-decoration:none;text-decoration-line:none;text-decoration-style:solid;text-decoration-color:#000000;letter-spacing:normal;word-spacing:normal;text-transform:none;writing-mode:lr-tb;direction:ltr;text-orientation:mixed;dominant-baseline:auto;baseline-shift:baseline;text-anchor:start;white-space:normal;shape-padding:0;shape-margin:0;inline-size:0;clip-rule:nonzero;display:inline;overflow:visible;visibility:visible;isolation:auto;mix-blend-mode:normal;color-interpolation:sRGB;color-interpolation-filters:linearRGB;solid-color:#000000;solid-opacity:1;vector-effect:none;fill:#ffffff;fill-opacity:1;fill-rule:nonzero;stroke:none;stroke-width:2.69999;stroke-linecap:butt;stroke-linejoin:miter;stroke-miterlimit:4;stroke-dasharray:none;stroke-dashoffset:0;stroke-opacity:1;color-rendering:auto;image-rendering:auto;shape-rendering:auto;text-rendering:auto;enable-background:accumulate;stop-color:#000000;stop-opacity:1;opacity:0.997" />
    <path
       style="color:#000000;font-style:normal;font-variant:normal;font-weight:normal;font-stretch:normal;font-size:medium;line-height:normal;font-family:sans-serif;font-variant-ligatures:normal;font-variant-position:normal;font-variant-caps:normal;font-variant-numeric:normal;font-variant-alternates:normal;font-variant-east-asian:normal;font-feature-settings:normal;font-variation-settings:normal;text-indent:0;text-align:start;text-decoration:none;text-decoration-line:none;text-decoration-style:solid;text-decoration-color:#000000;letter-spacing:normal;word-spacing:normal;text-transform:none;writing-mode:lr-tb;direction:ltr;text-orientation:mixed;dominant-baseline:auto;baseline-shift:baseline;text-anchor:start;white-space:normal;shape-padding:0;shape-margin:0;inline-size:0;clip-rule:nonzero;display:inline;overflow:visible;visibility:visible;opacity:1;isolation:auto;mix-blend-mode:normal;color-interpolation:sRGB;color-interpolation-filters:linearRGB;solid-color:#000000;solid-opacity:1;vector-effect:none;fill:#ffffff;fill-opacity:1;fill-rule:nonzero;stroke:none;stroke-width:4.59999;stroke-linecap:butt;stroke-linejoin:round;stroke-miterlimit:4;stroke-dasharray:none;stroke-dashoffset:0;stroke-opacity:1;color-rendering:auto;image-rendering:auto;shape-rendering:auto;text-rendering:auto;enable-background:accumulate;stop-color:#000000;stop-opacity:1"
       d="m -172.24895,-187.07628 c -3.10082,-0.45353 -6.27812,0.44349 -9.64257,2.31445 l -22.87305,12.25782 c -1.62777,0.87319 -1.61429,3.21203 0.0234,4.0664 0,0 1.81357,0.94585 3.67578,1.87696 0.9311,0.46555 1.87144,0.92651 2.63281,1.27734 0.38069,0.17541 0.71144,0.32173 1.01758,0.4414 0.15307,0.0598 0.29133,0.11305 0.49609,0.16993 0.10239,0.0284 0.21677,0.0606 0.42774,0.0859 0.21096,0.0254 0.50024,0.19616 1.34961,-0.22851 -0.12419,0.0621 0.5976,-0.2656 1.11718,-0.48828 0.51959,-0.22268 1.00391,-0.42774 1.00391,-0.42774 l -0.84212,-3.74024 c 0,0 -0.4917,0.20766 -1.02344,0.43555 -0.16182,0.0694 -0.27154,0.12328 -0.41406,0.1836 -0.0976,-0.0434 -1.09379,-0.55734 -1.20671,-0.60938 -0.59427,-0.27383 -1.40413,-0.67296 -2.20312,-1.07031 l 19.02343,-10.19336 c 0.0105,-0.006 0.0209,-0.0116 0.0313,-0.0176 2.85113,-1.5855 4.92738,-2.04835 6.74023,-1.7832 1.8116,0.26497 3.64635,1.30733 5.87695,3.53906 l 0.004,0.004 7.94531,8.24219 -6.16211,6.11133 -2.74023,-2.45704 -3.07032,3.42579 4.35547,3.90429 c 0.90721,0.81354 2.29146,0.77842 3.15625,-0.0801 l 9.31055,-9.23632 c 0.89246,-0.88525 0.90899,-2.32299 0.0371,-3.22852 l -9.54883,-9.9043 c -0.01,-0.01 -0.0194,-0.0196 -0.0293,-0.0293 -2.62913,-2.63175 -5.36793,-4.38827 -8.46876,-4.8418 z"
       id="path1016"
       sodipodi:nodetypes="scccssssscsccscscccsscccccccccccs" />
    <path
       id="path1731"
       d="M -193.23438 -169.01367 L -194.59766 -166.68359 L -188.81445 -163.30273 L -187.55273 -163.25 L -180.76953 -166.49219 L -181.93359 -168.92773 L -188.07031 -165.99609 L -193.23438 -169.01367 z "
       style="color:#000000;font-style:normal;font-variant:normal;font-weight:normal;font-stretch:normal;font-size:medium;line-height:normal;font-family:sans-serif;font-variant-ligatures:normal;font-variant-position:normal;font-variant-caps:normal;font-variant-numeric:normal;font-variant-alternates:normal;font-variant-east-asian:normal;font-feature-settings:normal;font-variation-settings:normal;text-indent:0;text-align:start;text-decoration:none;text-decoration-line:none;text-decoration-style:solid;text-decoration-color:#000000;letter-spacing:normal;word-spacing:normal;text-transform:none;writing-mode:lr-tb;direction:ltr;text-orientation:mixed;dominant-baseline:auto;baseline-shift:baseline;text-anchor:start;white-space:normal;shape-padding:0;shape-margin:0;inline-size:0;clip-rule:nonzero;display:inline;overflow:visible;visibility:visible;isolation:auto;mix-blend-mode:normal;color-interpolation:sRGB;color-interpolation-filters:linearRGB;solid-color:#000000;solid-opacity:1;vector-effect:none;fill:#ffffff;fill-opacity:1;fill-rule:nonzero;stroke:none;stroke-width:2.69999;stroke-linecap:butt;stroke-linejoin:bevel;stroke-miterlimit:4;stroke-dasharray:none;stroke-dashoffset:0;stroke-opacity:1;color-rendering:auto;image-rendering:auto;shape-rendering:auto;text-rendering:auto;enable-background:accumulate;stop-color:#000000;stop-opacity:1;opacity:0.997" />
    <path
       id="path1735"
       d="M -182.72656 -174.99023 L -197.20898 -167.81445 L -196.01172 -165.39453 L -181.52734 -172.57031 L -182.72656 -174.99023 z "
       style="color:#000000;font-style:normal;font-variant:normal;font-weight:normal;font-stretch:normal;font-size:medium;line-height:normal;font-family:sans-serif;font-variant-ligatures:normal;font-variant-position:normal;font-variant-caps:normal;font-variant-numeric:normal;font-variant-alternates:normal;font-variant-east-asian:normal;font-feature-settings:normal;font-variation-settings:normal;text-indent:0;text-align:start;text-decoration:none;text-decoration-line:none;text-decoration-style:solid;text-decoration-color:#000000;letter-spacing:normal;word-spacing:normal;text-transform:none;writing-mode:lr-tb;direction:ltr;text-orientation:mixed;dominant-baseline:auto;baseline-shift:baseline;text-anchor:start;white-space:normal;shape-padding:0;shape-margin:0;inline-size:0;clip-rule:nonzero;display:inline;overflow:visible;visibility:visible;isolation:auto;mix-blend-mode:normal;color-interpolation:sRGB;color-interpolation-filters:linearRGB;solid-color:#000000;solid-opacity:1;vector-effect:none;fill:#ffffff;fill-opacity:1;fill-rule:nonzero;stroke:none;stroke-width:2.69999;stroke-linecap:butt;stroke-linejoin:miter;stroke-miterlimit:4;stroke-dasharray:none;stroke-dashoffset:0;stroke-opacity:1;color-rendering:auto;image-rendering:auto;shape-rendering:auto;text-rendering:auto;enable-background:accumulate;stop-color:#000000;stop-opacity:1;opacity:0.997" />
    <path
       id="path1727"
       d="M -9.4570312 -173.26953 L -10.660156 -170.85156 L -5.2011719 -168.13477 L -6.8808594 -158.74023 L 2.3378906 -160.91406 L 2.0410156 -166.03906 L -0.65429688 -165.88281 L -0.49023438 -163.02148 L -3.5 -162.3125 L -2.1875 -169.65039 L -9.4570312 -173.26953 z "
       style="color:#000000;font-style:normal;font-variant:normal;font-weight:normal;font-stretch:normal;font-size:medium;line-height:normal;font-family:sans-serif;font-variant-ligatures:normal;font-variant-position:normal;font-variant-caps:normal;font-variant-numeric:normal;font-variant-alternates:normal;font-variant-east-asian:normal;font-feature-settings:normal;font-variation-settings:normal;text-indent:0;text-align:start;text-decoration:none;text-decoration-line:none;text-decoration-style:solid;text-decoration-color:#000000;letter-spacing:normal;word-spacing:normal;text-transform:none;writing-mode:lr-tb;direction:ltr;text-orientation:mixed;dominant-baseline:auto;baseline-shift:baseline;text-anchor:start;white-space:normal;shape-padding:0;shape-margin:0;inline-size:0;clip-rule:nonzero;display:inline;overflow:visible;visibility:visible;isolation:auto;mix-blend-mode:normal;color-interpolation:sRGB;color-interpolation-filters:linearRGB;solid-color:#000000;solid-opacity:1;vector-effect:none;fill:#ffffff;fill-opacity:1;fill-rule:nonzero;stroke:none;stroke-width:2.69999;stroke-linecap:butt;stroke-linejoin:miter;stroke-miterlimit:4;stroke-dasharray:none;stroke-dashoffset:0;stroke-opacity:1;color-rendering:auto;image-rendering:auto;shape-rendering:auto;text-rendering:auto;enable-background:accumulate;stop-color:#000000;stop-opacity:1;opacity:0.997" />
  </g>
</svg>
